<?xml version="1.0" encoding="UTF-8"?>
<!DOCTYPE svg PUBLIC "-//W3C//DTD SVG 1.1//EN" "http://www.w3.org/Graphics/SVG/1.1/DTD/svg11.dtd">
<svg xmlns="http://www.w3.org/2000/svg" version="1.1" width="512px" height="512px" style="shape-rendering:geometricPrecision; text-rendering:geometricPrecision; image-rendering:optimizeQuality; fill-rule:evenodd; clip-rule:evenodd" xmlns:xlink="http://www.w3.org/1999/xlink">
<g><path style="opacity:0.994" fill="#292f33" d="M 364.5,312.5 C 364.5,311.167 364.5,309.833 364.5,308.5C 364.5,307.167 364.5,305.833 364.5,304.5C 392.261,285.697 410.761,260.03 420,227.5C 434.585,229.697 444.252,223.697 449,209.5C 455.97,190.026 452.803,172.526 439.5,157C 432.673,152.679 425.839,152.512 419,156.5C 408.132,144.142 394.632,135.976 378.5,132C 363.595,129.476 348.595,127.81 333.5,127C 308.591,121.863 285.258,112.697 263.5,99.5C 244.284,118.218 224.617,136.385 204.5,154C 190.559,151.561 181.059,157.061 176,170.5C 170.118,187.654 171.784,203.988 181,219.5C 186.743,226.852 194.076,229.519 203,227.5C 212.658,259.854 231.325,285.521 259,304.5C 259.497,307.146 259.664,309.813 259.5,312.5C 227.996,312.832 196.662,312.498 165.5,311.5C 160.58,294.899 157.746,277.899 157,260.5C 155.465,226.182 155.132,191.849 156,157.5C 161.69,82.8422 199.524,32.6755 269.5,7C 331.302,-8.06641 383.802,7.76692 427,54.5C 451.086,83.7311 464.42,117.398 467,155.5C 467.667,192.5 467.667,229.5 467,266.5C 466.688,280.931 465.355,295.265 463,309.5C 460.071,329.049 448.905,336.883 429.5,333C 425.131,332.158 420.797,331.158 416.5,330C 399.243,323.859 381.91,318.026 364.5,312.5 Z"/></g>
<g><path style="opacity:1" fill="#f6ddcd" d="M 364.5,304.5 C 346.996,314.206 328.33,319.54 308.5,320.5C 299.357,313.63 289.024,310.963 277.5,312.5C 271.5,312.5 265.5,312.5 259.5,312.5C 259.664,309.813 259.497,307.146 259,304.5C 231.325,285.521 212.658,259.854 203,227.5C 194.076,229.519 186.743,226.852 181,219.5C 171.784,203.988 170.118,187.654 176,170.5C 181.059,157.061 190.559,151.561 204.5,154C 224.617,136.385 244.284,118.218 263.5,99.5C 285.258,112.697 308.591,121.863 333.5,127C 348.595,127.81 363.595,129.476 378.5,132C 394.632,135.976 408.132,144.142 419,156.5C 425.839,152.512 432.673,152.679 439.5,157C 452.803,172.526 455.97,190.026 449,209.5C 444.252,223.697 434.585,229.697 420,227.5C 410.761,260.03 392.261,285.697 364.5,304.5 Z"/></g>
<g><path style="opacity:1" fill="#682415" d="M 259.5,168.5 C 267.089,167.045 272.589,169.712 276,176.5C 276.667,182.833 276.667,189.167 276,195.5C 272.628,202.433 267.128,204.933 259.5,203C 256.667,201.5 254.5,199.333 253,196.5C 252.333,189.5 252.333,182.5 253,175.5C 254.694,172.642 256.861,170.309 259.5,168.5 Z"/></g>
<g><path style="opacity:1" fill="#682315" d="M 355.5,168.5 C 363.128,167.065 368.628,169.732 372,176.5C 372.667,182.833 372.667,189.167 372,195.5C 368.88,202.974 363.38,205.474 355.5,203C 352.272,201.437 350.105,198.937 349,195.5C 348.333,188.833 348.333,182.167 349,175.5C 350.694,172.642 352.861,170.309 355.5,168.5 Z"/></g>
<g><path style="opacity:1" fill="#c26b51" d="M 297.5,227.5 C 307.506,227.334 317.506,227.5 327.5,228C 331.698,232.632 331.364,236.965 326.5,241C 316.833,241.667 307.167,241.667 297.5,241C 293.551,236.457 293.551,231.957 297.5,227.5 Z"/></g>
<g><path style="opacity:1" fill="#df2434" d="M 278.5,255.5 C 280.857,255.337 283.19,255.503 285.5,256C 296.188,264.084 308.188,266.751 321.5,264C 328.152,261.67 334.485,258.837 340.5,255.5C 349.538,256.905 352.372,261.905 349,270.5C 335.671,282.06 320.171,286.56 302.5,284C 291.877,282.909 282.711,278.742 275,271.5C 271.129,265.02 272.295,259.687 278.5,255.5 Z"/></g>
<g><path style="opacity:1" fill="#eec3ae" d="M 364.5,304.5 C 364.5,305.833 364.5,307.167 364.5,308.5C 350.967,321.794 334.634,328.461 315.5,328.5C 313.138,325.808 310.804,323.141 308.5,320.5C 328.33,319.54 346.996,314.206 364.5,304.5 Z"/></g>
<g><path style="opacity:0.999" fill="#f6ddcd" d="M 364.5,308.5 C 364.5,309.833 364.5,311.167 364.5,312.5C 364.5,319.5 364.5,326.5 364.5,333.5C 363.202,344.644 357.202,352.144 346.5,356C 341.237,357.815 335.903,359.315 330.5,360.5C 327.733,354.385 325.233,348.052 323,341.5C 320.993,336.812 318.493,332.479 315.5,328.5C 334.634,328.461 350.967,321.794 364.5,308.5 Z"/></g>
<g><path style="opacity:0.998" fill="#99aab5" d="M 165.5,311.5 C 196.662,312.498 227.996,312.832 259.5,312.5C 265.5,312.5 271.5,312.5 277.5,312.5C 286.584,314.379 294.084,319.046 300,326.5C 303.841,332.178 307.174,338.178 310,344.5C 329.85,400.192 349.683,455.859 369.5,511.5C 271.167,511.5 172.833,511.5 74.5,511.5C 62.8945,508.405 54.3945,501.405 49,490.5C 32.5614,444.342 16.0614,398.342 -0.5,352.5C -0.5,346.833 -0.5,341.167 -0.5,335.5C 3.6893,322.495 12.6893,314.995 26.5,313C 72.8092,311.546 119.143,311.046 165.5,311.5 Z"/></g>
<g><path style="opacity:1" fill="#e0e7ec" d="M 277.5,312.5 C 289.024,310.963 299.357,313.63 308.5,320.5C 310.804,323.141 313.138,325.808 315.5,328.5C 318.493,332.479 320.993,336.812 323,341.5C 325.233,348.052 327.733,354.385 330.5,360.5C 344.428,401.282 358.761,441.949 373.5,482.5C 402.161,483.333 430.828,483.833 459.5,484C 468.282,488.417 470.782,495.25 467,504.5C 464.559,507.454 461.725,509.787 458.5,511.5C 428.833,511.5 399.167,511.5 369.5,511.5C 349.683,455.859 329.85,400.192 310,344.5C 307.174,338.178 303.841,332.178 300,326.5C 294.084,319.046 286.584,314.379 277.5,312.5 Z"/></g>
<g><path style="opacity:1" fill="#e0e7ec" d="M 37.5,330.5 C 116.167,330.333 194.834,330.5 273.5,331C 280.792,334.915 282.292,340.415 278,347.5C 276.681,349.487 274.848,350.654 272.5,351C 194.5,351.667 116.5,351.667 38.5,351C 29.6243,344.58 29.291,337.747 37.5,330.5 Z"/></g>
<g><path style="opacity:0.996" fill="#9266cc" d="M 364.5,333.5 C 379.837,333.333 395.17,333.5 410.5,334C 440.847,337.086 465.68,350.253 485,373.5C 491.182,381.868 495.182,391.202 497,401.5C 497.5,438.165 497.667,474.832 497.5,511.5C 484.5,511.5 471.5,511.5 458.5,511.5C 461.725,509.787 464.559,507.454 467,504.5C 470.782,495.25 468.282,488.417 459.5,484C 430.828,483.833 402.161,483.333 373.5,482.5C 358.761,441.949 344.428,401.282 330.5,360.5C 335.903,359.315 341.237,357.815 346.5,356C 357.202,352.144 363.202,344.644 364.5,333.5 Z"/></g>
<g><path style="opacity:1" fill="#e0e7ec" d="M 159.5,383.5 C 163.182,383.335 166.848,383.501 170.5,384C 185.712,390.88 195.545,402.38 200,418.5C 201.548,427.438 201.881,436.438 201,445.5C 195.912,464.294 184.412,470.127 166.5,463C 150.576,451.158 142.242,435.158 141.5,415C 140.987,400.499 146.987,389.999 159.5,383.5 Z"/></g>
</svg>
